<svg xmlns="http://www.w3.org/2000/svg" xmlns:xlink="http://www.w3.org/1999/xlink" viewBox="0 0 128 128"><defs><linearGradient id="a" x1="47.778" x2="95.088" y1="4.971" y2="52.281" gradientUnits="userSpaceOnUse"><stop offset="0" stop-color="#41d1ff"/><stop offset="1" stop-color="#bd34fe"/></linearGradient><linearGradient id="b" x1="101.668" x2="105.659" y1="119.636" y2="123.627" gradientUnits="userSpaceOnUse"><stop offset="0" stop-color="#ffdd35"/><stop offset="1" stop-color="#ff9f35"/></linearGradient></defs><path fill="url(#a)" d="M112.735 20.145L69.388 4.123a12.57 12.57 0 00-10.776 0L15.265 20.145a12.569 12.569 0 00-8.759 11.777v60.157a12.57 12.57 0 008.759 11.777l43.347 16.022a12.57 12.57 0 0010.776 0l43.347-16.022a12.57 12.57 0 008.759-11.777V31.922a12.57 12.57 0 00-8.759-11.777z"/><path fill="url(#b)" d="M103.663 121.631l-39.324-14.537a4.19 4.19 0 01-2.727-4.025V63.99a4.19 4.19 0 015.591-3.942l36.46 13.476a4.19 4.19 0 012.727 3.943v34.138a4.19 4.19 0 01-2.727 4.026z"/></svg>
